HIERARCHY
ROOT hip
{
  OFFSET 250.521 73.3653 -135.377
  CHANNELS 6 Xposition Yposition Zposition Zrotation Xrotation Yrotation
  JOINT abdomen
  {
    OFFSET 0 20.6881 -0.73152
    CHANNELS 3 Zrotation Xrotation Yrotation
    JOINT chest
    {
      OFFSET 0 11.7043 -0.48768
      CHANNELS 3 Zrotation Xrotation Yrotation
      JOINT neck
      {
        OFFSET 0 22.1894 -2.19456
        CHANNELS 3 Zrotation Xrotation Yrotation
        JOINT head
        {
          OFFSET -0.24384 7.07133 1.2192
          CHANNELS 3 Zrotation Xrotation Yrotation
          JOINT leftEye
          {
            OFFSET 4.14528 8.04674 8.04672
            CHANNELS 3 Zrotation Xrotation Yrotation
            End Site
            {
              OFFSET 1 0 0
            }
          }
          JOINT rightEye
          {
            OFFSET -3.6576 8.04674 8.04672
            CHANNELS 3 Zrotation Xrotation Yrotation
            End Site
            {
              OFFSET 1 0 0
            }
          }
        }
      }
      JOINT rCollar
      {
        OFFSET -2.68224 19.2634 -4.8768
        CHANNELS 3 Zrotation Xrotation Yrotation
        JOINT rShldr
        {
          OFFSET -8.77824 -1.95073 1.46304
          CHANNELS 3 Zrotation Xrotation Yrotation
          JOINT rForeArm
          {
            OFFSET -28.1742 -1.7115 0.48768
            CHANNELS 3 Zrotation Xrotation Yrotation
            JOINT rHand
            {
              OFFSET -22.5879 0.773209 7.07136
              CHANNELS 3 Zrotation Xrotation Yrotation
              JOINT rThumb1
              {
                OFFSET -1.2192 -0.487915 3.41376
                CHANNELS 3 Zrotation Xrotation Yrotation
                JOINT rThumb2
                {
                  OFFSET -3.37035 -0.52449 3.41376
                  CHANNELS 3 Zrotation Xrotation Yrotation
                  End Site
                  {
                    OFFSET -1.78271 -1.18214 1.43049
                  }
                }
              }
              JOINT rIndex1
              {
                OFFSET -7.75947 0.938293 5.60832
                CHANNELS 3 Zrotation Xrotation Yrotation
                JOINT rIndex2
                {
                  OFFSET -2.54057 -0.884171 1.56538
                  CHANNELS 3 Zrotation Xrotation Yrotation
                  End Site
                  {
                    OFFSET -1.62519 -0.234802 1.16502
                  }
                }
              }
              JOINT rMid1
              {
                OFFSET -8.24714 1.18213 3.41376
                CHANNELS 3 Zrotation Xrotation Yrotation
                JOINT rMid2
                {
                  OFFSET -3.10165 -0.590103 1.0647
                  CHANNELS 3 Zrotation Xrotation Yrotation
                  End Site
                  {
                    OFFSET -2.48547 -0.328903 0.83742
                  }
                }
              }
              JOINT rRing1
              {
                OFFSET -8.82822 0.546677 1.51678
                CHANNELS 3 Zrotation Xrotation Yrotation
                JOINT rRing2
                {
                  OFFSET -2.60934 -0.819778 -0.0198488
                  CHANNELS 3 Zrotation Xrotation Yrotation
                  End Site
                  {
                    OFFSET -2.33842 -0.294052 0.168128
                  }
                }
              }
              JOINT rPinky1
              {
                OFFSET -8.27202 -0.0477905 -0.4584
                CHANNELS 3 Zrotation Xrotation Yrotation
                JOINT rPinky2
                {
                  OFFSET -1.82734 -0.647385 -0.700984
                  CHANNELS 3 Zrotation Xrotation Yrotation
                  End Site
                  {
                    OFFSET -1.69225 -0.51767 -0.607171
                  }
                }
              }
            }
          }
        }
      }
      JOINT lCollar
      {
        OFFSET 2.68224 19.2634 -4.8768
        CHANNELS 3 Zrotation Xrotation Yrotation
        JOINT lShldr
        {
          OFFSET 8.77824 -1.95073 1.46304
          CHANNELS 3 Zrotation Xrotation Yrotation
          JOINT lForeArm
          {
            OFFSET 28.1742 -1.7115 0.48768
            CHANNELS 3 Zrotation Xrotation Yrotation
            JOINT lHand
            {
              OFFSET 22.5879 0.773209 7.07136
              CHANNELS 3 Zrotation Xrotation Yrotation
              JOINT lThumb1
              {
                OFFSET 1.2192 -0.487915 3.41376
                CHANNELS 3 Zrotation Xrotation Yrotation
                JOINT lThumb2
                {
                  OFFSET 3.37035 -0.52449 3.41376
                  CHANNELS 3 Zrotation Xrotation Yrotation
                  End Site
                  {
                    OFFSET 1.78271 -1.18214 1.43049
                  }
                }
              }
              JOINT lIndex1
              {
                OFFSET 7.75947 0.938293 5.60832
                CHANNELS 3 Zrotation Xrotation Yrotation
                JOINT lIndex2
                {
                  OFFSET 2.54057 -0.884171 1.56538
                  CHANNELS 3 Zrotation Xrotation Yrotation
                  End Site
                  {
                    OFFSET 1.62519 -0.234802 1.16502
                  }
                }
              }
              JOINT lMid1
              {
                OFFSET 8.24714 1.18213 3.41376
                CHANNELS 3 Zrotation Xrotation Yrotation
                JOINT lMid2
                {
                  OFFSET 3.10165 -0.590103 1.0647
                  CHANNELS 3 Zrotation Xrotation Yrotation
                  End Site
                  {
                    OFFSET 2.48547 -0.328903 0.83742
                  }
                }
              }
              JOINT lRing1
              {
                OFFSET 8.82822 0.546677 1.51678
                CHANNELS 3 Zrotation Xrotation Yrotation
                JOINT lRing2
                {
                  OFFSET 2.60934 -0.819778 -0.0198488
                  CHANNELS 3 Zrotation Xrotation Yrotation
                  End Site
                  {
                    OFFSET 2.33842 -0.294052 0.168128
                  }
                }
              }
              JOINT lPinky1
              {
                OFFSET 8.27202 -0.0477905 -0.4584
                CHANNELS 3 Zrotation Xrotation Yrotation
                JOINT lPinky2
                {
                  OFFSET 1.82734 -0.647385 -0.700984
                  CHANNELS 3 Zrotation Xrotation Yrotation
                  End Site
                  {
                    OFFSET 1.69225 -0.51767 -0.607171
                  }
                }
              }
            }
          }
        }
      }
    }
  }
  JOINT rButtock
  {
    OFFSET -8.77824 4.35084 1.2192
    CHANNELS 3 Zrotation Xrotation Yrotation
    JOINT rThigh
    {
      OFFSET 0 -1.70687 -2.19456
      CHANNELS 3 Zrotation Xrotation Yrotation
      JOINT rShin
      {
        OFFSET 0 -36.8199 0.73152
        CHANNELS 3 Zrotation Xrotation Yrotation
        JOINT rFoot
        {
          OFFSET 0.73152 -45.1104 -5.12064
          CHANNELS 3 Zrotation Xrotation Yrotation
          End Site
          {
            OFFSET -1.1221 -3.69964 12.103
          }
        }
      }
    }
  }
  JOINT lButtock
  {
    OFFSET 8.77824 4.35084 1.2192
    CHANNELS 3 Zrotation Xrotation Yrotation
    JOINT lThigh
    {
      OFFSET 0 -1.70687 -2.19456
      CHANNELS 3 Zrotation Xrotation Yrotation
      JOINT lShin
      {
        OFFSET 0 -36.8199 0.73152
        CHANNELS 3 Zrotation Xrotation Yrotation
        JOINT lFoot
        {
          OFFSET -0.73152 -45.1104 -5.12064
          CHANNELS 3 Zrotation Xrotation Yrotation
          End Site
          {
            OFFSET 1.1221 -3.69964 12.103
          }
        }
      }
    }
  }
}
MOTION
Frames:	4
Frame Time:	0.00833333
-38.0563 68.085 -47.4117 26.8979 1.79083 -119.487 -12.1546 31.2954 -3.06077 2.89366 -2.33288 -0.558658 -13.0787 16.0129 -10.7301 40.2465 -60.9979 1.58302 -0 0 0 -0 0 0 7.79551e-013 -9.05755e-013 -9.52772e-013 72.1123 10.7674 8.35526 -23.0714 -17.4576 46.7852 -0.0145194 -4.36416 -0.613415 3.16069e-009 -4.77873e-010 -6.08922e-009 5.49333e-009 -8.14527e-010 -1.05522e-008 3.16071e-009 -4.77868e-010 -6.08924e-009 7.73091 5.47488 0.417314 3.16068e-009 -4.77873e-010 -6.08922e-009 2.90554 0.965183 0.102902 3.1607e-009 -4.77874e-010 -6.08922e-009 10.2786 0.731801 0.0259123 3.16069e-009 -4.77874e-010 -6.08922e-009 2.22167 -0.733487 -0.20892 7.79472e-013 -9.0577e-013 -9.53002e-013 -65.6645 -12.728 -7.77135 28.2057 -31.7754 -69.8905 16.0109 -70.0009 22.7121 2.65154e-009 3.49342e-009 -1.44465e-009 4.5971e-009 6.33226e-009 -2.3257e-009 2.65154e-009 3.49342e-009 -1.44465e-009 -7.73091 5.47488 -0.417314 2.65154e-009 3.49344e-009 -1.44465e-009 -2.90554 0.965183 -0.102902 2.65153e-009 3.49342e-009 -1.44465e-009 -10.2786 0.731801 -0.0259123 2.65154e-009 3.49342e-009 -1.44466e-009 -2.22167 -0.733487 0.20892 -2.03217e-016 0 -3.88251e-019 -37.2248 -74.8889 -50.8276 -1.32206 64.5079 1.98354 -1.6814 -12.1131 -3.39726 2.03217e-016 0 3.88251e-019 -3.47804 3.55622 1.73914 -0.0832531 34.124 -2.17092 2.13747 8.37422 -5.01354 
-35.3372 68.0762 -49.2943 26.9793 2.18892 -119.409 -11.6657 30.8667 -2.72868 2.54508 -2.10264 -0.439959 -12.7102 16.4604 -10.7974 39.2029 -61.7577 0.98145 -0 0 0 -0 0 0 4.60733e-013 -3.78681e-013 -5.46327e-013 72.3378 9.75916 7.19485 -23.3049 -17.8524 47.4814 -0.0440063 -6.43846 -0.907939 1.48966e-009 7.33737e-010 -4.84475e-009 2.60822e-009 1.28296e-009 -8.39005e-009 1.48967e-009 7.33738e-010 -4.84475e-009 7.73091 5.47488 0.417314 1.48965e-009 7.33733e-010 -4.84474e-009 2.90554 0.965183 0.102902 1.48967e-009 7.3373e-010 -4.84475e-009 10.2786 0.731801 0.0259123 1.48966e-009 7.33729e-010 -4.84474e-009 2.22167 -0.733487 -0.20892 4.60664e-013 -3.78664e-013 -5.46639e-013 -66.8999 -14.5931 -3.74105 28.3675 -33.4454 -72.6312 18.6887 -71.9582 25.5464 8.6509e-010 -1.1662e-010 -1.08349e-009 1.52174e-009 -7.29934e-011 -1.79436e-009 8.6509e-010 -1.16616e-010 -1.08349e-009 -7.73091 5.47488 -0.417314 8.65088e-010 -1.16619e-010 -1.08349e-009 -2.90554 0.965183 -0.102902 8.65083e-010 -1.16616e-010 -1.08349e-009 -10.2786 0.731801 -0.0259123 8.65095e-010 -1.16614e-010 -1.0835e-009 -2.22167 -0.733487 0.20892 -2.03217e-016 0 -3.88251e-019 -34.3587 -74.4382 -49.1002 -1.07627 60.7079 1.62096 -1.18142 -11.5796 -1.89045 2.03217e-016 0 3.88251e-019 -4.21517 5.36235 -0.314995 -0.0531565 34.4025 -2.11709 1.60407 7.58416 -0.823063 
-32.7019 67.9806 -51.1203 26.9835 2.68954 -119.425 -11.4302 30.5749 -2.20845 2.35746 -1.88433 -0.285502 -12.4838 16.8933 -10.9456 38.2864 -62.276 0.150768 -0 0 0 -0 0 0 1.94032e-013 -9.30495e-014 -2.41523e-013 72.5044 8.76604 5.91681 -23.5394 -18.2607 48.1838 -0.0813263 -8.10867 -1.14735 2.08989e-010 1.19876e-009 -3.30223e-009 3.89606e-010 2.08637e-009 -5.71693e-009 2.08993e-010 1.19876e-009 -3.30223e-009 7.73091 5.47488 0.417314 2.08977e-010 1.19875e-009 -3.30222e-009 2.90554 0.965183 0.102902 2.08999e-010 1.19875e-009 -3.30223e-009 10.2786 0.731801 0.0259123 2.08979e-010 1.19875e-009 -3.30222e-009 2.22167 -0.733487 -0.20892 1.93959e-013 -9.3013e-014 -2.41871e-013 -67.9 -16.4748 -0.0192813 28.4241 -34.9424 -75.2499 21.4857 -73.5754 28.4741 -2.95318e-010 -2.54199e-009 -6.90031e-010 -4.82636e-010 -4.41476e-009 -1.18082e-009 -2.95318e-010 -2.54198e-009 -6.90028e-010 -7.73091 5.47488 -0.417314 -2.9532e-010 -2.542e-009 -6.90034e-010 -2.90554 0.965183 -0.102902 -2.95324e-010 -2.54198e-009 -6.90033e-010 -10.2786 0.731801 -0.0259123 -2.95313e-010 -2.54198e-009 -6.90037e-010 -2.22167 -0.733487 0.20892 -2.03217e-016 0 -3.88251e-019 -31.2048 -73.7116 -46.8256 -0.946757 57.8147 1.38378 -0.921841 -10.9489 -1.09901 2.03217e-016 0 3.88251e-019 -4.68165 6.58796 -1.78372 -0.00503192 35.7486 -2.08115 1.32119 7.00698 2.14626 
-30.0495 67.8951 -52.9306 26.9063 3.43109 -119.589 -11.6347 30.4767 -1.48473 2.46862 -1.65898 -0.100661 -12.479 17.281 -11.1951 37.5399 -62.452 -0.964585 -0 0 0 -0 0 0 2.90212e-015 -1.57326e-013 -8.54452e-014 72.5099 7.85098 4.42958 -23.8034 -18.7382 48.9654 -0.111496 -9.26216 -1.31374 -6.82166e-010 4.25213e-010 -1.05642e-009 -1.17022e-009 7.43186e-010 -1.83551e-009 -6.82158e-010 4.25215e-010 -1.05643e-009 7.73091 5.47488 0.417314 -6.82176e-010 4.25208e-010 -1.05641e-009 2.90554 0.965183 0.102902 -6.82157e-010 4.25205e-010 -1.05642e-009 10.2786 0.731801 0.0259123 -6.82176e-010 4.25203e-010 -1.05641e-009 2.22167 -0.733487 -0.20892 2.79929e-015 -1.57288e-013 -8.57566e-014 -68.8243 -18.4467 3.40224 28.4364 -36.417 -77.7193 24.1977 -74.8491 31.2903 -6.81677e-010 -3.36227e-009 -1.34531e-010 -1.16858e-009 -5.89287e-009 -2.6067e-010 -6.81678e-010 -3.36226e-009 -1.34528e-010 -7.73091 5.47488 -0.417314 -6.8168e-010 -3.36228e-009 -1.34536e-010 -2.90554 0.965183 -0.102902 -6.81684e-010 -3.36227e-009 -1.34534e-010 -10.2786 0.731801 -0.0259123 -6.81673e-010 -3.36227e-009 -1.34539e-010 -2.22167 -0.733487 0.20892 -2.03217e-016 0 -3.88251e-019 -28.0775 -72.5214 -44.2944 -0.881567 55.9803 1.21466 -0.893883 -9.94202 -1.07738 2.03217e-016 0 3.88251e-019 -5.0599 7.24822 -2.54398 0.0590768 38.3877 -2.06826 1.2674 6.79183 3.45237 
